<mxfile host="app.diagrams.net" modified="2023-05-21T10:00:44.707Z" agent="Mozilla/5.0 (Windows NT 10.0; Win64; x64) AppleWebKit/537.36 (KHTML, like Gecko) Chrome/113.0.0.0 Safari/537.36" etag="vJS--WMHCyao7oE_84bf" version="21.3.2" type="device">
  <diagram name="Page-1" id="03018318-947c-dd8e-b7a3-06fadd420f32">
    <mxGraphModel dx="1880" dy="925" grid="1" gridSize="10" guides="1" tooltips="1" connect="1" arrows="1" fold="1" page="1" pageScale="1" pageWidth="1400" pageHeight="850" background="#ffffff" math="0" shadow="0">
      <root>
        <mxCell id="0" />
        <mxCell id="1" parent="0" />
        <mxCell id="677b7b8949515195-1" value="" style="whiteSpace=wrap;html=1;rounded=0;shadow=0;labelBackgroundColor=none;strokeColor=#000000;strokeWidth=1;fillColor=none;fontFamily=Verdana;fontSize=12;fontColor=#000000;align=center;comic=1;" parent="1" vertex="1">
          <mxGeometry x="20" y="20" width="1060" height="810" as="geometry" />
        </mxCell>
        <mxCell id="677b7b8949515195-2" value="LOGO" style="whiteSpace=wrap;html=1;rounded=0;shadow=0;labelBackgroundColor=none;strokeWidth=1;fontFamily=Verdana;fontSize=28;align=center;comic=1;" parent="1" vertex="1">
          <mxGeometry x="40" y="60" width="190" height="50" as="geometry" />
        </mxCell>
        <mxCell id="677b7b8949515195-15" value="&lt;div style=&quot;text-align: justify&quot;&gt;At drug consultancy, your health is our ultimate focus&lt;/div&gt;" style="whiteSpace=wrap;html=1;rounded=0;shadow=0;labelBackgroundColor=none;strokeWidth=1;fillColor=none;fontFamily=Verdana;fontSize=12;align=center;verticalAlign=top;spacing=10;comic=1;" parent="1" vertex="1">
          <mxGeometry x="80" y="660" width="940" height="100" as="geometry" />
        </mxCell>
        <mxCell id="677b7b8949515195-16" value="" style="verticalLabelPosition=bottom;shadow=0;dashed=0;align=center;html=1;verticalAlign=top;strokeWidth=1;shape=mxgraph.mockup.graphics.simpleIcon;strokeColor=#999999;rounded=0;labelBackgroundColor=none;fontFamily=Verdana;fontSize=14;fontColor=#000000;comic=1;" parent="1" vertex="1">
          <mxGeometry x="290" y="210" width="510" height="440" as="geometry" />
        </mxCell>
        <mxCell id="677b7b8949515195-42" value="External Links" style="text;html=1;points=[];align=left;verticalAlign=top;spacingTop=-4;fontSize=14;fontFamily=Verdana" parent="1" vertex="1">
          <mxGeometry x="490" y="770" width="170" height="13" as="geometry" />
        </mxCell>
        <mxCell id="29OP2wmRGH6S1slDclZZ-21" value="&lt;div style=&quot;text-align: justify&quot;&gt;&lt;br&gt;&lt;/div&gt;" style="whiteSpace=wrap;html=1;rounded=0;shadow=0;labelBackgroundColor=none;strokeWidth=1;fillColor=none;fontFamily=Verdana;fontSize=12;align=center;verticalAlign=top;spacing=10;comic=1;" parent="1" vertex="1">
          <mxGeometry x="80" y="770" width="940" height="50" as="geometry" />
        </mxCell>
        <mxCell id="m6ImM0HUmPenZWyBpw_--3" value="Login" style="whiteSpace=wrap;html=1;rounded=0;shadow=0;labelBackgroundColor=none;strokeWidth=1;fontFamily=Verdana;fontSize=28;align=center;comic=1;" parent="1" vertex="1">
          <mxGeometry x="455" y="150" width="190" height="50" as="geometry" />
        </mxCell>
        <mxCell id="m6ImM0HUmPenZWyBpw_--10" value="4" style="ellipse;whiteSpace=wrap;html=0;" parent="1" vertex="1">
          <mxGeometry x="50" y="680" width="20" height="20" as="geometry" />
        </mxCell>
        <mxCell id="m6ImM0HUmPenZWyBpw_--11" value="5" style="ellipse;whiteSpace=wrap;html=0;" parent="1" vertex="1">
          <mxGeometry x="50" y="780" width="20" height="20" as="geometry" />
        </mxCell>
        <mxCell id="m6ImM0HUmPenZWyBpw_--12" value="2" style="ellipse;whiteSpace=wrap;html=0;" parent="1" vertex="1">
          <mxGeometry x="430" y="165" width="20" height="20" as="geometry" />
        </mxCell>
        <mxCell id="m6ImM0HUmPenZWyBpw_--14" value="1" style="ellipse;whiteSpace=wrap;html=0;" parent="1" vertex="1">
          <mxGeometry x="130" y="30" width="20" height="20" as="geometry" />
        </mxCell>
        <mxCell id="m6ImM0HUmPenZWyBpw_--16" value="&lt;ol&gt;&lt;li&gt;&lt;font style=&quot;font-size: 14px;&quot;&gt;The logo for the drug provider company. It is a static element.&lt;/font&gt;&lt;/li&gt;&lt;li&gt;&lt;font size=&quot;3&quot;&gt;The status for the user who is logged in. It is a dynamic element&lt;/font&gt;&lt;/li&gt;&lt;li&gt;&lt;font size=&quot;3&quot;&gt;The logged in elements: the identifier text entry and the password text entry&lt;/font&gt;&lt;/li&gt;&lt;li&gt;&lt;span style=&quot;font-size: medium; background-color: initial;&quot;&gt;An advertisement section for the drug dispensing company. It is a static element.&lt;/span&gt;&lt;br&gt;&lt;/li&gt;&lt;li&gt;&lt;font size=&quot;3&quot;&gt;A section for external hyperlinks. It is a static element&lt;/font&gt;&lt;/li&gt;&lt;/ol&gt;" style="text;strokeColor=none;align=left;fillColor=none;html=1;verticalAlign=middle;whiteSpace=wrap;rounded=0;" parent="1" vertex="1">
          <mxGeometry x="1140" y="20" width="230" height="800" as="geometry" />
        </mxCell>
        <mxCell id="p7BdQ77If5vEjtEW7fnC-3" value="3" style="ellipse;whiteSpace=wrap;html=0;" vertex="1" parent="1">
          <mxGeometry x="160" y="370" width="20" height="20" as="geometry" />
        </mxCell>
        <mxCell id="p7BdQ77If5vEjtEW7fnC-5" value="" style="line;strokeWidth=1;html=1;rounded=0;shadow=0;labelBackgroundColor=none;fillColor=none;fontFamily=Verdana;fontSize=14;fontColor=#000000;align=center;comic=1;" vertex="1" parent="1">
          <mxGeometry x="20" y="130" width="1060" height="10" as="geometry" />
        </mxCell>
      </root>
    </mxGraphModel>
  </diagram>
</mxfile>
